G04 #@! TF.FileFunction,Copper,L2,Bot,Signal*
%FSLAX46Y46*%
G04 Gerber Fmt 4.6, Leading zero omitted, Abs format (unit mm)*
G04 Created by KiCad (PCBNEW (2015-02-03 BZR 5404)-product) date 2016-5-14 22:59:46*
%MOMM*%
G01*
G04 APERTURE LIST*
%ADD10C,0.150000*%
%ADD11R,2.199640X1.524000*%
%ADD12O,2.199640X1.524000*%
%ADD13C,0.685800*%
%ADD14C,0.254000*%
%ADD15C,0.508000*%
G04 APERTURE END LIST*
D10*
D11*
X207772000Y-145542000D03*
D12*
X207772000Y-148082000D03*
X207772000Y-150622000D03*
X207772000Y-153162000D03*
X207772000Y-155702000D03*
D13*
X193548000Y-151384000D03*
X197358000Y-150114000D03*
X201168000Y-156464000D03*
X192786000Y-144780000D03*
X195326000Y-148336000D03*
X198882000Y-154686000D03*
D14*
X203200000Y-153162000D02*
X207772000Y-153162000D01*
X200152000Y-150114000D02*
X203200000Y-153162000D01*
X197358000Y-150114000D02*
X200152000Y-150114000D01*
X201168000Y-156210000D02*
X204216000Y-153162000D01*
X204216000Y-153162000D02*
X207772000Y-153162000D01*
X201168000Y-156464000D02*
X201168000Y-156210000D01*
X202438000Y-144780000D02*
X203200000Y-145542000D01*
X203200000Y-145542000D02*
X207772000Y-145542000D01*
D15*
X203200000Y-145542000D02*
X207772000Y-145542000D01*
X202438000Y-144780000D02*
X203200000Y-145542000D01*
X192786000Y-144780000D02*
X202438000Y-144780000D01*
X198374000Y-154686000D02*
X195326000Y-151638000D01*
X195326000Y-151638000D02*
X195326000Y-148336000D01*
X198882000Y-154686000D02*
X198374000Y-154686000D01*
D14*
G36*
X208865000Y-157303000D02*
X199860069Y-157303000D01*
X199860069Y-154492337D01*
X199711507Y-154132788D01*
X199436659Y-153857460D01*
X199077370Y-153708270D01*
X198688337Y-153707931D01*
X198663450Y-153718214D01*
X196215000Y-151269764D01*
X196215000Y-148745055D01*
X196303730Y-148531370D01*
X196304069Y-148142337D01*
X196155507Y-147782788D01*
X195880659Y-147507460D01*
X195521370Y-147358270D01*
X195132337Y-147357931D01*
X194772788Y-147506493D01*
X194497460Y-147781341D01*
X194348270Y-148140630D01*
X194347931Y-148529663D01*
X194437000Y-148745227D01*
X194437000Y-151638000D01*
X194504671Y-151978206D01*
X194697382Y-152266618D01*
X197745382Y-155314618D01*
X198033794Y-155507329D01*
X198033795Y-155507329D01*
X198374000Y-155575000D01*
X198472944Y-155575000D01*
X198686630Y-155663730D01*
X199075663Y-155664069D01*
X199435212Y-155515507D01*
X199710540Y-155240659D01*
X199859730Y-154881370D01*
X199860069Y-154492337D01*
X199860069Y-157303000D01*
X193972368Y-157303000D01*
X193972368Y-152860850D01*
X193972368Y-148464110D01*
X193807598Y-148065337D01*
X193502767Y-147759974D01*
X193104283Y-147594509D01*
X192672810Y-147594132D01*
X192274037Y-147758902D01*
X191968674Y-148063733D01*
X191803209Y-148462217D01*
X191802832Y-148893690D01*
X191967602Y-149292463D01*
X192272433Y-149597826D01*
X192670917Y-149763291D01*
X193102390Y-149763668D01*
X193501163Y-149598898D01*
X193806526Y-149294067D01*
X193971991Y-148895583D01*
X193972368Y-148464110D01*
X193972368Y-152860850D01*
X193807598Y-152462077D01*
X193502767Y-152156714D01*
X193104283Y-151991249D01*
X192672810Y-151990872D01*
X192274037Y-152155642D01*
X191968674Y-152460473D01*
X191803209Y-152858957D01*
X191802832Y-153290430D01*
X191967602Y-153689203D01*
X192272433Y-153994566D01*
X192670917Y-154160031D01*
X193102390Y-154160408D01*
X193501163Y-153995638D01*
X193806526Y-153690807D01*
X193971991Y-153292323D01*
X193972368Y-152860850D01*
X193972368Y-157303000D01*
X188899000Y-157303000D01*
X188899000Y-144449000D01*
X191864588Y-144449000D01*
X191808270Y-144584630D01*
X191807931Y-144973663D01*
X191956493Y-145333212D01*
X192231341Y-145608540D01*
X192590630Y-145757730D01*
X192979663Y-145758069D01*
X193195227Y-145669000D01*
X202069764Y-145669000D01*
X202571382Y-146170618D01*
X202859794Y-146363329D01*
X202859795Y-146363329D01*
X203200000Y-146431000D01*
X206049380Y-146431000D01*
X206071717Y-146546123D01*
X206211507Y-146758927D01*
X206422540Y-146901377D01*
X206636643Y-146944313D01*
X206412365Y-147094172D01*
X206109533Y-147547391D01*
X206003193Y-148082000D01*
X206109533Y-148616609D01*
X206412365Y-149069828D01*
X206834664Y-149352000D01*
X206412365Y-149634172D01*
X206109533Y-150087391D01*
X206003193Y-150622000D01*
X206109533Y-151156609D01*
X206412365Y-151609828D01*
X206847605Y-151900647D01*
X206782239Y-151919941D01*
X206356550Y-152263974D01*
X206094920Y-152744723D01*
X206079960Y-152818930D01*
X206202460Y-153035000D01*
X207645000Y-153035000D01*
X207645000Y-153015000D01*
X207899000Y-153015000D01*
X207899000Y-153035000D01*
X207919000Y-153035000D01*
X207919000Y-153289000D01*
X207899000Y-153289000D01*
X207899000Y-153309000D01*
X207645000Y-153309000D01*
X207645000Y-153289000D01*
X206202460Y-153289000D01*
X206079960Y-153505070D01*
X206094920Y-153579277D01*
X206356550Y-154060026D01*
X206782239Y-154404059D01*
X206847605Y-154423352D01*
X206412365Y-154714172D01*
X206109533Y-155167391D01*
X206003193Y-155702000D01*
X206109533Y-156236609D01*
X206412365Y-156689828D01*
X206865584Y-156992660D01*
X207400193Y-157099000D01*
X208143807Y-157099000D01*
X208678416Y-156992660D01*
X208865000Y-156867988D01*
X208865000Y-157303000D01*
X208865000Y-157303000D01*
G37*
X208865000Y-157303000D02*
X199860069Y-157303000D01*
X199860069Y-154492337D01*
X199711507Y-154132788D01*
X199436659Y-153857460D01*
X199077370Y-153708270D01*
X198688337Y-153707931D01*
X198663450Y-153718214D01*
X196215000Y-151269764D01*
X196215000Y-148745055D01*
X196303730Y-148531370D01*
X196304069Y-148142337D01*
X196155507Y-147782788D01*
X195880659Y-147507460D01*
X195521370Y-147358270D01*
X195132337Y-147357931D01*
X194772788Y-147506493D01*
X194497460Y-147781341D01*
X194348270Y-148140630D01*
X194347931Y-148529663D01*
X194437000Y-148745227D01*
X194437000Y-151638000D01*
X194504671Y-151978206D01*
X194697382Y-152266618D01*
X197745382Y-155314618D01*
X198033794Y-155507329D01*
X198033795Y-155507329D01*
X198374000Y-155575000D01*
X198472944Y-155575000D01*
X198686630Y-155663730D01*
X199075663Y-155664069D01*
X199435212Y-155515507D01*
X199710540Y-155240659D01*
X199859730Y-154881370D01*
X199860069Y-154492337D01*
X199860069Y-157303000D01*
X193972368Y-157303000D01*
X193972368Y-152860850D01*
X193972368Y-148464110D01*
X193807598Y-148065337D01*
X193502767Y-147759974D01*
X193104283Y-147594509D01*
X192672810Y-147594132D01*
X192274037Y-147758902D01*
X191968674Y-148063733D01*
X191803209Y-148462217D01*
X191802832Y-148893690D01*
X191967602Y-149292463D01*
X192272433Y-149597826D01*
X192670917Y-149763291D01*
X193102390Y-149763668D01*
X193501163Y-149598898D01*
X193806526Y-149294067D01*
X193971991Y-148895583D01*
X193972368Y-148464110D01*
X193972368Y-152860850D01*
X193807598Y-152462077D01*
X193502767Y-152156714D01*
X193104283Y-151991249D01*
X192672810Y-151990872D01*
X192274037Y-152155642D01*
X191968674Y-152460473D01*
X191803209Y-152858957D01*
X191802832Y-153290430D01*
X191967602Y-153689203D01*
X192272433Y-153994566D01*
X192670917Y-154160031D01*
X193102390Y-154160408D01*
X193501163Y-153995638D01*
X193806526Y-153690807D01*
X193971991Y-153292323D01*
X193972368Y-152860850D01*
X193972368Y-157303000D01*
X188899000Y-157303000D01*
X188899000Y-144449000D01*
X191864588Y-144449000D01*
X191808270Y-144584630D01*
X191807931Y-144973663D01*
X191956493Y-145333212D01*
X192231341Y-145608540D01*
X192590630Y-145757730D01*
X192979663Y-145758069D01*
X193195227Y-145669000D01*
X202069764Y-145669000D01*
X202571382Y-146170618D01*
X202859794Y-146363329D01*
X202859795Y-146363329D01*
X203200000Y-146431000D01*
X206049380Y-146431000D01*
X206071717Y-146546123D01*
X206211507Y-146758927D01*
X206422540Y-146901377D01*
X206636643Y-146944313D01*
X206412365Y-147094172D01*
X206109533Y-147547391D01*
X206003193Y-148082000D01*
X206109533Y-148616609D01*
X206412365Y-149069828D01*
X206834664Y-149352000D01*
X206412365Y-149634172D01*
X206109533Y-150087391D01*
X206003193Y-150622000D01*
X206109533Y-151156609D01*
X206412365Y-151609828D01*
X206847605Y-151900647D01*
X206782239Y-151919941D01*
X206356550Y-152263974D01*
X206094920Y-152744723D01*
X206079960Y-152818930D01*
X206202460Y-153035000D01*
X207645000Y-153035000D01*
X207645000Y-153015000D01*
X207899000Y-153015000D01*
X207899000Y-153035000D01*
X207919000Y-153035000D01*
X207919000Y-153289000D01*
X207899000Y-153289000D01*
X207899000Y-153309000D01*
X207645000Y-153309000D01*
X207645000Y-153289000D01*
X206202460Y-153289000D01*
X206079960Y-153505070D01*
X206094920Y-153579277D01*
X206356550Y-154060026D01*
X206782239Y-154404059D01*
X206847605Y-154423352D01*
X206412365Y-154714172D01*
X206109533Y-155167391D01*
X206003193Y-155702000D01*
X206109533Y-156236609D01*
X206412365Y-156689828D01*
X206865584Y-156992660D01*
X207400193Y-157099000D01*
X208143807Y-157099000D01*
X208678416Y-156992660D01*
X208865000Y-156867988D01*
X208865000Y-157303000D01*
M02*
