G04 #@! TF.FileFunction,Legend,Top*
%FSLAX46Y46*%
G04 Gerber Fmt 4.6, Leading zero omitted, Abs format (unit mm)*
G04 Created by KiCad (PCBNEW (2015-02-03 BZR 5404)-product) date 2016-5-14 22:59:47*
%MOMM*%
G01*
G04 APERTURE LIST*
%ADD10C,0.150000*%
%ADD11C,0.127000*%
%ADD12C,0.304800*%
%ADD13C,0.195580*%
G04 APERTURE END LIST*
D10*
X198786000Y-155610000D02*
X199486000Y-155610000D01*
X199486000Y-156810000D02*
X198786000Y-156810000D01*
X203550000Y-156810000D02*
X202850000Y-156810000D01*
X202850000Y-155610000D02*
X203550000Y-155610000D01*
X204820000Y-145634000D02*
X204120000Y-145634000D01*
X204120000Y-144434000D02*
X204820000Y-144434000D01*
D11*
X201422000Y-145133060D02*
X201422000Y-144934940D01*
X201322940Y-144833340D02*
X201322940Y-145234660D01*
X201322940Y-145234660D02*
X201521060Y-145034000D01*
X201521060Y-145034000D02*
X201322940Y-144833340D01*
X200621900Y-144533620D02*
X202222100Y-144533620D01*
X202222100Y-145534380D02*
X200621900Y-145534380D01*
D10*
X198874000Y-145709000D02*
X197874000Y-145709000D01*
X197874000Y-144359000D02*
X198874000Y-144359000D01*
D11*
X199376000Y-147576000D02*
X198376000Y-147576000D01*
X198376000Y-147576000D02*
X198376000Y-148576000D01*
X198476000Y-148476000D02*
X198276000Y-148676000D01*
X198276000Y-148676000D02*
X198276000Y-147476000D01*
X198276000Y-147476000D02*
X199476000Y-147476000D01*
X199476000Y-147476000D02*
X199276000Y-147676000D01*
X199276000Y-147676000D02*
X198476000Y-147676000D01*
X198476000Y-147676000D02*
X198476000Y-148476000D01*
X199275700Y-147876260D02*
X199176640Y-147876260D01*
X199075040Y-147876260D02*
X198975980Y-147876260D01*
D12*
X209042000Y-146812000D02*
X206502000Y-146812000D01*
X206502000Y-156972000D02*
X206502000Y-144272000D01*
X209042000Y-144272000D02*
X209042000Y-156972000D01*
X206502000Y-144272000D02*
X209042000Y-144272000D01*
X209042000Y-156972000D02*
X206502000Y-156972000D01*
D10*
X198969334Y-155297143D02*
X198921715Y-155344762D01*
X198778858Y-155392381D01*
X198683620Y-155392381D01*
X198540762Y-155344762D01*
X198445524Y-155249524D01*
X198397905Y-155154286D01*
X198350286Y-154963810D01*
X198350286Y-154820952D01*
X198397905Y-154630476D01*
X198445524Y-154535238D01*
X198540762Y-154440000D01*
X198683620Y-154392381D01*
X198778858Y-154392381D01*
X198921715Y-154440000D01*
X198969334Y-154487619D01*
X199921715Y-155392381D02*
X199350286Y-155392381D01*
X199636000Y-155392381D02*
X199636000Y-154392381D01*
X199540762Y-154535238D01*
X199445524Y-154630476D01*
X199350286Y-154678095D01*
X203033334Y-155297143D02*
X202985715Y-155344762D01*
X202842858Y-155392381D01*
X202747620Y-155392381D01*
X202604762Y-155344762D01*
X202509524Y-155249524D01*
X202461905Y-155154286D01*
X202414286Y-154963810D01*
X202414286Y-154820952D01*
X202461905Y-154630476D01*
X202509524Y-154535238D01*
X202604762Y-154440000D01*
X202747620Y-154392381D01*
X202842858Y-154392381D01*
X202985715Y-154440000D01*
X203033334Y-154487619D01*
X203414286Y-154487619D02*
X203461905Y-154440000D01*
X203557143Y-154392381D01*
X203795239Y-154392381D01*
X203890477Y-154440000D01*
X203938096Y-154487619D01*
X203985715Y-154582857D01*
X203985715Y-154678095D01*
X203938096Y-154820952D01*
X203366667Y-155392381D01*
X203985715Y-155392381D01*
X204303334Y-146915143D02*
X204255715Y-146962762D01*
X204112858Y-147010381D01*
X204017620Y-147010381D01*
X203874762Y-146962762D01*
X203779524Y-146867524D01*
X203731905Y-146772286D01*
X203684286Y-146581810D01*
X203684286Y-146438952D01*
X203731905Y-146248476D01*
X203779524Y-146153238D01*
X203874762Y-146058000D01*
X204017620Y-146010381D01*
X204112858Y-146010381D01*
X204255715Y-146058000D01*
X204303334Y-146105619D01*
X204636667Y-146010381D02*
X205255715Y-146010381D01*
X204922381Y-146391333D01*
X205065239Y-146391333D01*
X205160477Y-146438952D01*
X205208096Y-146486571D01*
X205255715Y-146581810D01*
X205255715Y-146819905D01*
X205208096Y-146915143D01*
X205160477Y-146962762D01*
X205065239Y-147010381D01*
X204779524Y-147010381D01*
X204684286Y-146962762D01*
X204636667Y-146915143D01*
X200683905Y-147010381D02*
X200683905Y-146010381D01*
X200922000Y-146010381D01*
X201064858Y-146058000D01*
X201160096Y-146153238D01*
X201207715Y-146248476D01*
X201255334Y-146438952D01*
X201255334Y-146581810D01*
X201207715Y-146772286D01*
X201160096Y-146867524D01*
X201064858Y-146962762D01*
X200922000Y-147010381D01*
X200683905Y-147010381D01*
X202207715Y-147010381D02*
X201636286Y-147010381D01*
X201922000Y-147010381D02*
X201922000Y-146010381D01*
X201826762Y-146153238D01*
X201731524Y-146248476D01*
X201636286Y-146296095D01*
X198207334Y-147010381D02*
X197874000Y-146534190D01*
X197635905Y-147010381D02*
X197635905Y-146010381D01*
X198016858Y-146010381D01*
X198112096Y-146058000D01*
X198159715Y-146105619D01*
X198207334Y-146200857D01*
X198207334Y-146343714D01*
X198159715Y-146438952D01*
X198112096Y-146486571D01*
X198016858Y-146534190D01*
X197635905Y-146534190D01*
X199159715Y-147010381D02*
X198588286Y-147010381D01*
X198874000Y-147010381D02*
X198874000Y-146010381D01*
X198778762Y-146153238D01*
X198683524Y-146248476D01*
X198588286Y-146296095D01*
X201168095Y-150328381D02*
X201168095Y-151137905D01*
X201215714Y-151233143D01*
X201263333Y-151280762D01*
X201358571Y-151328381D01*
X201549048Y-151328381D01*
X201644286Y-151280762D01*
X201691905Y-151233143D01*
X201739524Y-151137905D01*
X201739524Y-150328381D01*
X202739524Y-151328381D02*
X202168095Y-151328381D01*
X202453809Y-151328381D02*
X202453809Y-150328381D01*
X202358571Y-150471238D01*
X202263333Y-150566476D01*
X202168095Y-150614095D01*
D13*
X191205576Y-151866782D02*
X190207356Y-151866782D01*
X190207356Y-151486507D01*
X190254890Y-151391439D01*
X190302424Y-151343904D01*
X190397493Y-151296370D01*
X190540096Y-151296370D01*
X190635164Y-151343904D01*
X190682699Y-151391439D01*
X190730233Y-151486507D01*
X190730233Y-151866782D01*
X190302424Y-150916096D02*
X190254890Y-150868562D01*
X190207356Y-150773493D01*
X190207356Y-150535822D01*
X190254890Y-150440753D01*
X190302424Y-150393219D01*
X190397493Y-150345684D01*
X190492561Y-150345684D01*
X190635164Y-150393219D01*
X191205576Y-150963630D01*
X191205576Y-150345684D01*
M02*
