M48
METRIC,TZ
VER,1
FMAT,2
T01C0.3302F42B423S6H2000
T02C0.9906F42B423S6H2000
T03C1.2192F42B423S6H2000
T04C3.2512F42B423S6H2000
DETECT,ON
ATC,ON
%
T01
M25
X33236Y34760
X33998Y28156
X35776Y31204
X37808Y29426
X39332Y24854
X41618Y23076
M01
M02X0Y14224
M02X0Y14224
M02X0Y14224
M02X21336Y-42672
M02X0Y14224
M02X0Y14224
M02X0Y14224
M02
M08
T02
M25
X48222Y33998
Y31458
Y28918
Y26378
Y23838
M01
M02X0Y14224
M02X0Y14224
M02X0Y14224
M02X21336Y-42672
M02X0Y14224
M02X0Y14224
M02X0Y14224
M02
M08
T03
X17540Y15000
Y17540
Y12460
X15000
Y15000
Y17540
X12460Y12460
Y15000
Y17540
T04
X5000Y95000
M30
