G04 #@! TF.FileFunction,Soldermask,Top*
%FSLAX46Y46*%
G04 Gerber Fmt 4.6, Leading zero omitted, Abs format (unit mm)*
G04 Created by KiCad (PCBNEW (2015-02-03 BZR 5404)-product) date 2016-5-14 22:59:47*
%MOMM*%
G01*
G04 APERTURE LIST*
%ADD10C,0.150000*%
%ADD11R,0.800000X0.750000*%
%ADD12R,0.797560X0.797560*%
%ADD13R,0.500000X0.900000*%
%ADD14R,0.942340X0.492760*%
%ADD15R,0.492760X0.942340*%
%ADD16R,2.042160X2.042160*%
%ADD17R,2.199640X1.524000*%
%ADD18O,2.199640X1.524000*%
%ADD19R,2.197100X2.197100*%
%ADD20R,2.197100X0.497840*%
%ADD21C,0.899160*%
G04 APERTURE END LIST*
D10*
D11*
X198386000Y-156210000D03*
X199886000Y-156210000D03*
X203950000Y-156210000D03*
X202450000Y-156210000D03*
X205220000Y-145034000D03*
X203720000Y-145034000D03*
D12*
X200672700Y-145034000D03*
X202171300Y-145034000D03*
D13*
X197624000Y-145034000D03*
X199124000Y-145034000D03*
D14*
X198826120Y-149575520D03*
X198826120Y-150225760D03*
X198826120Y-150876000D03*
X198826120Y-151526240D03*
D15*
X199725280Y-153728420D03*
X200375520Y-153728420D03*
X201025760Y-153728420D03*
X201676000Y-153728420D03*
X202326240Y-153728420D03*
X202976480Y-153728420D03*
X203626720Y-153728420D03*
D14*
X198826120Y-148925280D03*
D16*
X200726040Y-151825960D03*
X200726040Y-149926040D03*
X202625960Y-149926040D03*
X202625960Y-151825960D03*
D14*
X204528420Y-152877520D03*
X204528420Y-152227280D03*
X204528420Y-151577040D03*
X204528420Y-150876000D03*
X204528420Y-150276560D03*
X204528420Y-149626320D03*
X204528420Y-148976080D03*
D15*
X203626720Y-148026120D03*
X202976480Y-148026120D03*
X202326240Y-148026120D03*
X201676000Y-148026120D03*
X201025760Y-148026120D03*
X200375520Y-148026120D03*
X199725280Y-148026120D03*
D14*
X198826120Y-152176480D03*
X198826120Y-152826720D03*
D17*
X207772000Y-145542000D03*
D18*
X207772000Y-148082000D03*
X207772000Y-150622000D03*
X207772000Y-153162000D03*
X207772000Y-155702000D03*
D19*
X195135500Y-155305760D03*
D20*
X195414900Y-149278340D03*
X195414900Y-150078440D03*
X195414900Y-150876000D03*
X195414900Y-151673560D03*
X195414900Y-152473660D03*
D21*
X192887600Y-148678900D03*
X192887600Y-153075640D03*
D19*
X195135500Y-146446240D03*
X189636400Y-146446240D03*
X189636400Y-155305760D03*
M02*
